<svg width="97" height="24" viewBox="0 0 97 24" fill="none" xmlns="http://www.w3.org/2000/svg">
<path fill-rule="evenodd" clip-rule="evenodd" d="M77.267 8.61465L74.3724 1.31394L76.7437 0.515503L78.7812 8.15337L77.267 8.61465Z" fill="#94A3B8"/>
<path fill-rule="evenodd" clip-rule="evenodd" d="M93.8881 20.758L87.0185 17.6034L87.6235 16.1423L95.2999 18.6356L93.8881 20.758Z" fill="#94A3B8"/>
<path fill-rule="evenodd" clip-rule="evenodd" d="M87.3759 13.2595L96.4267 11.4288L96.4574 13.9181L87.5811 14.8273L87.3759 13.2595Z" fill="#94A3B8"/>
<path fill-rule="evenodd" clip-rule="evenodd" d="M85.9187 10.5543L93.537 5.10266L95.1266 7.20838L86.8306 11.7341L85.9187 10.5543Z" fill="#94A3B8"/>
<path fill-rule="evenodd" clip-rule="evenodd" d="M80.2523 8.07399L80.8327 0L83.2801 0.0111767L81.8263 8.24733L80.2523 8.07399Z" fill="#94A3B8"/>
<path fill-rule="evenodd" clip-rule="evenodd" d="M83.2493 8.76784L87.6492 1.06848L89.8925 2.06877L84.7076 9.5568L83.2493 8.76784Z" fill="#94A3B8"/>
<path fill-rule="evenodd" clip-rule="evenodd" d="M74.2584 19.9507C73.53 18.4664 73.3689 16.767 73.8055 15.1723C74.2364 13.6914 75.1421 12.3932 76.3831 11.4775C77.1485 10.9077 78.0282 10.5104 78.9618 10.3131C79.8954 10.1158 80.8606 10.1232 81.7911 10.3346C82.577 10.502 83.2982 10.8918 83.8687 11.4576C84.4392 12.0233 84.835 12.7412 85.009 13.5256C85.1848 14.3412 85.1586 15.1875 84.9325 15.9906C84.7064 16.7938 84.2873 17.5294 83.7118 18.1335C82.4207 19.3468 80.7331 20.0502 78.9624 20.1128L79.4656 18.6323C79.4656 18.6323 80.9194 18.6177 82.3553 16.9722C82.8116 16.459 83.064 15.7964 83.0649 15.1098C83.0659 14.4231 82.8152 13.7599 82.3603 13.2455C81.9922 12.9132 81.5502 12.6733 81.071 12.5457C80.5917 12.4181 80.089 12.4065 79.6043 12.5119C78.5802 12.6326 77.6274 13.0974 76.902 13.8303C76.1331 14.5436 75.6184 15.4886 75.4365 16.5215C75.3136 17.0791 75.3103 17.6565 75.4268 18.2155C75.5433 18.7745 75.777 19.3024 76.1125 19.7645C77.1894 20.9946 78.5727 21.3765 80.3653 20.9946L79.946 22.3153C76.8338 22.9712 75.0725 21.3419 74.2584 19.9507Z" fill="#94A3B8"/>
<path fill-rule="evenodd" clip-rule="evenodd" d="M2.40766 14.735C2.64641 14.4784 2.8902 14.2106 3.14349 13.9316C3.39678 13.6526 3.64001 13.3775 3.8782 13.1046C4.1164 12.8317 4.33782 12.5712 4.54917 12.3251C4.76053 12.0791 4.94057 11.8644 5.09098 11.6816H7.95322C7.38103 12.3376 6.82301 12.9642 6.27915 13.5614C5.73529 14.1586 5.13981 14.7736 4.4927 15.4066C4.84871 15.7331 5.18357 16.082 5.49524 16.451C5.83967 16.8564 6.17459 17.2741 6.49666 17.7052C6.81872 18.1363 7.11619 18.5691 7.38625 19.0007C7.65632 19.4324 7.87997 19.826 8.06561 20.1822H5.29674C5.12341 19.9026 4.92771 19.5912 4.70629 19.2507C4.48487 18.9102 4.25171 18.5702 4.00569 18.2297C3.75966 17.8892 3.49687 17.5637 3.22289 17.2501C2.97571 16.9615 2.70305 16.6958 2.40822 16.4561V20.1844H0V8.02984L2.40766 7.64124V14.735Z" fill="#94A3B8"/>
<path fill-rule="evenodd" clip-rule="evenodd" d="M11.8913 20.1828H9.48247V11.6839H11.8913V20.1828ZM12.1149 9.22366C12.1245 9.41823 12.091 9.61251 12.0168 9.79266C11.9427 9.97281 11.8298 10.1344 11.686 10.2659C11.4064 10.5106 11.0475 10.6455 10.676 10.6455C10.3044 10.6455 9.94548 10.5106 9.66587 10.2659C9.39131 9.98837 9.2373 9.61375 9.2373 9.22337C9.2373 8.83299 9.39131 8.45836 9.66587 8.18085C9.94548 7.93615 10.3044 7.80127 10.676 7.80127C11.0475 7.80127 11.4064 7.93615 11.686 8.18085C11.831 8.31232 11.945 8.47428 12.02 8.65506C12.0949 8.83585 12.1288 9.03097 12.1194 9.22644L12.1149 9.22366Z" fill="#94A3B8"/>
<path fill-rule="evenodd" clip-rule="evenodd" d="M20.5484 20.1828H18.1408V11.6839H20.5484V20.1828ZM20.7721 9.22366C20.7821 9.41803 20.7491 9.6122 20.6755 9.79236C20.6018 9.97251 20.4893 10.1342 20.346 10.2659C20.0664 10.5106 19.7075 10.6455 19.3359 10.6455C18.9644 10.6455 18.6054 10.5106 18.3258 10.2659C18.0513 9.98837 17.8973 9.61375 17.8973 9.22337C17.8973 8.83299 18.0513 8.45836 18.3258 8.18085C18.6054 7.93615 18.9644 7.80127 19.3359 7.80127C19.7075 7.80127 20.0664 7.93615 20.346 8.18085C20.49 8.31278 20.603 8.47496 20.6769 8.65575C20.7507 8.83653 20.7836 9.03143 20.7732 9.22644L20.7721 9.22366Z" fill="#94A3B8"/>
<path fill-rule="evenodd" clip-rule="evenodd" d="M27.233 15.6749C27.276 15.1088 27.1732 14.5411 26.9344 14.026C26.8233 13.8595 26.6691 13.7261 26.4882 13.6403C26.3073 13.5544 26.1065 13.5192 25.9072 13.5384C25.7509 13.5382 25.5946 13.5467 25.4392 13.5641C25.2799 13.5787 25.1222 13.5971 24.9724 13.6201V20.1799H22.5647V11.9728C22.7688 11.9169 23.0064 11.861 23.2826 11.8023C23.5588 11.7436 23.8468 11.6905 24.1538 11.6402C24.4607 11.5898 24.7767 11.554 25.0998 11.5283C25.423 11.5026 25.7401 11.4864 26.0537 11.4864C26.5626 11.4693 27.07 11.5494 27.5489 11.7224C27.8934 11.8547 28.2133 12.0437 28.4955 12.2815C29.2092 11.7879 30.0509 11.5121 30.9183 11.4875C31.4895 11.4686 32.0587 11.5652 32.5918 11.7715C33.0034 11.9421 33.3629 12.2181 33.634 12.5717C33.9022 12.9363 34.0845 13.3568 34.1674 13.8018C34.2688 14.3234 34.3174 14.8539 34.3123 15.3853V20.1861H31.904V15.6777C31.9469 15.1115 31.8439 14.5438 31.6049 14.0288C31.4939 13.8625 31.3398 13.7295 31.1591 13.6441C30.9784 13.5586 30.7778 13.5238 30.5789 13.5435C30.3953 13.5531 30.2136 13.5858 30.0382 13.6408C29.8358 13.6924 29.6423 13.7744 29.4645 13.884C29.54 14.1391 29.5886 14.4015 29.6093 14.6668C29.6311 14.943 29.6412 15.2354 29.6412 15.5474V20.1883H27.2324L27.233 15.6749Z" fill="#94A3B8"/>
<path fill-rule="evenodd" clip-rule="evenodd" d="M39.8678 18.502C40.1038 18.502 40.3308 18.4969 40.5449 18.4874C40.7591 18.4779 40.933 18.4595 41.0621 18.4382V16.6109C40.966 16.5908 40.82 16.5679 40.626 16.5472C40.2374 16.5003 39.8443 16.5027 39.4563 16.5545C39.2735 16.5765 39.0955 16.6284 38.9296 16.7082C38.786 16.7771 38.6634 16.8831 38.5745 17.0152C38.4845 17.1603 38.4396 17.3288 38.4454 17.4994C38.4293 17.6523 38.4564 17.8067 38.5235 17.945C38.5906 18.0833 38.695 18.2001 38.825 18.2822C39.1484 18.4431 39.5077 18.518 39.8684 18.4997L39.8678 18.502ZM39.6727 11.4568C40.2749 11.4414 40.8757 11.5233 41.4519 11.6994C41.8823 11.8355 42.2729 12.0746 42.5897 12.3961C42.8798 12.7066 43.0884 13.0841 43.1969 13.4948C43.3199 13.964 43.3795 14.4475 43.3742 14.9324V19.9406C43.0294 20.0152 42.55 20.1041 41.9361 20.2073C41.1978 20.3184 40.4517 20.3698 39.7051 20.3611C39.2033 20.3656 38.7025 20.3165 38.2111 20.2146C37.7984 20.132 37.4057 19.9701 37.0548 19.7377C36.7348 19.5208 36.4783 19.2226 36.3117 18.8738C36.1284 18.4626 36.0401 18.0154 36.0534 17.5654C36.0399 17.1258 36.1429 16.6904 36.3519 16.3034C36.545 15.9654 36.8207 15.6818 37.1532 15.4792C37.5073 15.2669 37.8952 15.1167 38.3 15.0353C38.7413 14.9428 39.1911 14.8971 39.6419 14.8989C39.9198 14.8967 40.1975 14.9097 40.4739 14.938C40.673 14.9574 40.8702 14.9923 41.0638 15.0425V14.8189C41.0719 14.6383 41.0432 14.4578 40.9794 14.2887C40.9156 14.1195 40.818 13.9651 40.6925 13.8348C40.3267 13.5466 39.863 13.4124 39.3998 13.4607C38.9939 13.4605 38.5886 13.49 38.187 13.5491C37.8351 13.5978 37.4889 13.6817 37.1537 13.7996L36.8473 11.8605C36.9866 11.8174 37.1616 11.7721 37.3718 11.7229C37.5821 11.6737 37.8102 11.6335 38.0584 11.5943C38.3067 11.5552 38.5673 11.5255 38.8412 11.497C39.1152 11.4685 39.3925 11.4551 39.6727 11.4551V11.4568Z" fill="#94A3B8"/>
<path fill-rule="evenodd" clip-rule="evenodd" d="M45.3066 11.973C45.8275 11.8313 46.3562 11.7204 46.8901 11.6408C47.5642 11.5365 48.2454 11.4851 48.9276 11.4871C49.5406 11.4687 50.1517 11.5655 50.7291 11.7722C51.1729 11.9332 51.5662 12.2087 51.8692 12.5707C52.1573 12.9312 52.3613 13.3514 52.4664 13.8008C52.5899 14.3194 52.6498 14.8512 52.6447 15.3843V20.1851H50.2404V15.6767C50.2838 15.11 50.1778 14.5418 49.9329 14.0289C49.8007 13.8544 49.625 13.7176 49.4233 13.6323C49.2217 13.5469 49.0012 13.5159 48.7839 13.5425C48.6161 13.5425 48.4288 13.5497 48.2359 13.5682C48.043 13.5866 47.8669 13.6012 47.717 13.6241V20.1839H45.3088L45.3066 11.973Z" fill="#94A3B8"/>
<path fill-rule="evenodd" clip-rule="evenodd" d="M57.4613 9.22647C57.4711 9.42093 57.4377 9.61516 57.3633 9.79512C57.289 9.97507 57.1756 10.1363 57.0313 10.267C56.7519 10.5118 56.3932 10.6467 56.0218 10.6467C55.6504 10.6467 55.2916 10.5118 55.0122 10.267C54.7384 9.98937 54.5849 9.61507 54.5849 9.22509C54.5849 8.83511 54.7384 8.46079 55.0122 8.18312C55.2916 7.93838 55.6504 7.80347 56.0218 7.80347C56.3932 7.80347 56.7519 7.93838 57.0313 8.18312C57.1758 8.31429 57.2893 8.47596 57.3637 8.65641C57.4381 8.83686 57.4714 9.03156 57.4613 9.22647Z" fill="#94A3B8"/>
<path fill-rule="evenodd" clip-rule="evenodd" d="M62.7988 18.502C63.0347 18.502 63.2611 18.497 63.4753 18.4874C63.6894 18.4779 63.8639 18.4595 63.9925 18.4382V16.611C63.8952 16.5908 63.7499 16.5679 63.5558 16.5472C63.3788 16.5259 63.2007 16.5147 63.0224 16.5137C62.8091 16.5129 62.5959 16.5266 62.3844 16.5545C62.2018 16.5766 62.024 16.6285 61.8583 16.7083C61.7148 16.7773 61.5923 16.8832 61.5032 17.0152C61.4138 17.1605 61.3688 17.3289 61.374 17.4994C61.3581 17.6523 61.3852 17.8067 61.4523 17.945C61.5193 18.0833 61.6238 18.2001 61.7537 18.2822C62.0771 18.4431 62.4364 18.518 62.797 18.4997L62.7988 18.502ZM62.603 11.4568C63.2047 11.4413 63.805 11.5233 64.3806 11.6995C64.8115 11.835 65.2026 12.0743 65.5195 12.3962C65.8104 12.706 66.0192 13.0837 66.1267 13.4949C66.2498 13.964 66.3094 14.4475 66.304 14.9324V19.9407C65.9581 20.0152 65.4785 20.1041 64.8653 20.2074C64.1274 20.3184 63.3817 20.3698 62.6355 20.3611C62.1331 20.3656 61.6317 20.3165 61.1398 20.2146C60.7273 20.1324 60.3349 19.9704 59.9846 19.7377C59.6636 19.5214 59.4064 19.2231 59.2398 18.8738C59.0564 18.4626 58.9681 18.0154 58.9815 17.5654C58.9681 17.1258 59.0711 16.6905 59.2801 16.3034C59.473 15.9658 59.748 15.6824 60.0796 15.4793C60.434 15.2669 60.822 15.1168 61.227 15.0353C61.6683 14.9429 62.1181 14.8972 62.5689 14.8989C62.8468 14.8967 63.1245 14.9097 63.4009 14.938C63.5998 14.9573 63.7969 14.9923 63.9903 15.0426V14.8189C63.9983 14.6383 63.9696 14.458 63.9058 14.2889C63.8421 14.1197 63.7447 13.9652 63.6195 13.8348C63.2531 13.547 62.7892 13.4129 62.3257 13.4608C61.9198 13.4605 61.5145 13.49 61.1129 13.5491C60.7605 13.598 60.4138 13.6819 60.078 13.7996L59.771 11.8605C59.9113 11.8174 60.0869 11.7722 60.2972 11.7229C60.5074 11.6737 60.7361 11.6335 60.9838 11.5944C61.2315 11.5552 61.4926 11.5256 61.7666 11.4971C62.0406 11.4685 62.3251 11.4551 62.6058 11.4551L62.603 11.4568Z" fill="#94A3B8"/>
<path fill-rule="evenodd" clip-rule="evenodd" d="M73.2469 13.8157C73.03 13.7598 72.7772 13.7039 72.4865 13.648C71.9995 13.5491 71.4995 13.5324 71.007 13.5988C70.8465 13.6166 70.6874 13.6461 70.5312 13.6871V20.1832H68.1213V12.135C68.6219 11.9637 69.1317 11.8206 69.6483 11.7061C70.2937 11.5659 70.9527 11.4984 71.6131 11.5048C71.7423 11.5048 71.8983 11.5132 72.0817 11.5294C72.2651 11.5456 72.4479 11.5674 72.6319 11.5937C72.8158 11.62 72.997 11.6536 73.1798 11.6893C73.3406 11.7215 73.4981 11.7679 73.6506 11.828L73.2469 13.8157Z" fill="#94A3B8"/>
<path fill-rule="evenodd" clip-rule="evenodd" d="M16.1883 20.1843V7.64282L13.7795 8.03143V20.1843H16.1883Z" fill="#94A3B8"/>
<path fill-rule="evenodd" clip-rule="evenodd" d="M53.3376 22.2806C53.608 22.1286 53.8565 21.9405 54.0762 21.7215C54.3269 21.4697 54.5235 21.1694 54.6539 20.8389C54.7843 20.5084 54.8457 20.1548 54.8344 19.7997V11.6631H57.2253V19.599C57.2484 20.3174 57.1066 21.0316 56.811 21.6868C56.5606 22.2116 56.2199 22.6884 55.8045 23.0953C55.4351 23.4571 55.0139 23.762 54.5548 23.9999L53.3376 22.2806Z" fill="#94A3B8"/>
</svg>
